PathFileType	4	(X/Y/Z)	C:/Users/opensim2020/Desktop/walking_exp_matlab/subject03_walking10_straight_04.trc	
DataRate	CameraRate	NumFrames	NumMarkers	Units	OrigDataRate	OrigDataStartFrame	OrigNumFrames	
100.00	100.00	8	45	mm	100.00	3863	317	
Frame#	Time	LFHD			RFHD			LBHD			RBHD			C7			T10			CLAV			STRN			RBAK			LSHO			LUPA			LELB			LFRM			LWRA			LWRB			LFIN			RSHO			RUPA			RELB			RFRM			RWRA			RWRB			RFIN			LASI			RASI			LPSI			RPSI			LTHI			LKNE			LTIB			LANK			LHEE			LTOE			RTHI			RKNE			RTIB			RANK			RHEE			RTOE			*39			*40			*41			*42			*43			*44			
		X1	Y1	Z1	X2	Y2	Z2	X3	Y3	Z3	X4	Y4	Z4	X5	Y5	Z5	X6	Y6	Z6	X7	Y7	Z7	X8	Y8	Z8	X9	Y9	Z9	X10	Y10	Z10	X11	Y11	Z11	X12	Y12	Z12	X13	Y13	Z13	X14	Y14	Z14	X15	Y15	Z15	X16	Y16	Z16	X17	Y17	Z17	X18	Y18	Z18	X19	Y19	Z19	X20	Y20	Z20	X21	Y21	Z21	X22	Y22	Z22	X23	Y23	Z23	X24	Y24	Z24	X25	Y25	Z25	X26	Y26	Z26	X27	Y27	Z27	X28	Y28	Z28	X29	Y29	Z29	X30	Y30	Z30	X31	Y31	Z31	X32	Y32	Z32	X33	Y33	Z33	X34	Y34	Z34	X35	Y35	Z35	X36	Y36	Z36	X37	Y37	Z37	X38	Y38	Z38	X39	Y39	Z39	X40	Y40	Z40	X41	Y41	Z41	X42	Y42	Z42	X43	Y43	Z43	X44	Y44	Z44	X45	Y45	Z45	

40	0.390	-905.19537	738.30878	1622.62561	-1037.95105	743.71210	1631.08276	-907.02893	861.33777	1564.87280	-1037.79797	861.24292	1573.47314	-971.86145	883.15100	1417.90649	-979.37854	923.62689	1106.07520	-973.13324	761.03943	1339.84973	-971.76068	720.63220	1174.11292	-1076.05444	936.42816	1247.53918	-816.52374	804.32544	1372.52881	-746.63080	817.44733	1174.00708	-735.60370	814.47015	1050.66907	-736.55475	791.33514	922.39240	-767.50616	776.48407	804.05267	-715.11182	797.27533	809.79559	-727.03455	788.44812	724.74847	-1132.25549	798.42078	1364.75720	-1199.92480	779.21930	1141.07385	-1207.08435	754.31519	1030.15784	-1202.76440	726.03503	896.18335	-1160.71606	693.54034	804.09290	-1208.54321	717.04846	797.67755	-1198.89453	684.57367	732.24677	-863.81903	752.52850	945.10748	-1101.39221	757.65460	934.57288	-911.50513	917.03998	967.91699	-1061.21326	917.88507	965.07526	-823.96381	794.91461	644.48096	-865.15796	773.34357	467.49551	-865.72876	809.82385	275.64374	-908.43127	808.07794	65.47520	-944.94067	845.72821	30.65984	-931.31177	653.30688	30.36483	-1148.41907	803.58362	634.29669	-1127.81006	775.85590	456.29614	-1125.63806	920.12952	330.74823	-1080.16223	1079.94971	188.38905	-1022.61090	1128.29626	196.56802	-1073.97253	1021.24298	57.90763	-950.62482	828.16425	1676.55774															 
41	0.400	-904.97559	731.65057	1622.39697	-1037.62708	737.31726	1631.21716	-906.78510	854.75500	1564.64856	-1037.60339	854.83698	1573.46448	-971.51343	876.71539	1418.05176	-978.70483	917.15118	1106.09277	-973.10791	754.80188	1339.69543	-971.67450	714.45380	1173.95667	-1075.05566	930.69312	1247.48340	-816.32568	797.52631	1372.25684	-745.61304	808.47522	1173.93384	-733.90015	803.86707	1050.76794	-734.54706	779.53760	922.73413	-765.04590	763.91425	804.49493	-712.44489	784.04559	810.28772	-723.64429	773.57214	725.58337	-1132.18677	792.71179	1364.29211	-1199.81848	774.45813	1140.45984	-1207.16138	749.79865	1029.42212	-1203.44788	723.03247	895.03583	-1161.89709	691.91583	802.15643	-1209.96851	715.16522	796.55603	-1201.03223	683.28180	730.82404	-863.10803	745.55994	945.38434	-1100.92688	751.15320	934.81476	-910.59937	910.07190	967.83453	-1060.26404	911.37543	964.73138	-823.66364	788.70685	644.47662	-865.19763	768.99298	467.24509	-865.54767	807.26953	275.65012	-908.59491	807.75403	65.56677	-945.53162	845.34949	30.41327	-931.39471	653.17291	30.31588	-1147.70642	792.87421	634.70746	-1127.47534	761.08539	457.41528	-1125.39636	904.61774	331.44965	-1079.87793	1064.16797	188.74805	-1022.10583	1112.92737	195.69153	-1075.49048	1003.22931	59.79724	-950.12170	821.76013	1676.45593															 
42	0.410	-904.68781	725.12891	1622.34009	-1037.40417	730.84863	1631.33789	-906.55847	848.22742	1564.50391	-1037.38208	848.34894	1573.51245	-971.14380	870.38013	1418.16077	-977.99103	910.73590	1106.12573	-973.08307	748.61975	1339.68921	-971.55585	708.20532	1173.94727	-1074.17932	924.98840	1247.41724	-816.22852	790.83521	1372.13647	-744.74249	799.59326	1174.12683	-732.39917	793.39368	1051.13611	-732.66107	767.71863	923.36536	-762.69543	751.25110	805.23810	-709.85083	770.74738	811.07050	-720.27124	758.52411	726.77301	-1132.16650	787.09021	1364.07544	-1199.77075	769.75031	1140.06055	-1207.30127	745.38098	1028.93384	-1204.27307	720.07764	894.22552	-1163.26257	690.12079	800.63251	-1211.46179	713.25623	795.72235	-1203.29517	682.07251	729.85278	-862.43719	738.73370	945.60223	-1100.18176	743.77344	935.26154	-909.67896	903.29773	967.70959	-1059.34326	904.89734	964.66370	-823.47015	782.55029	644.42963	-864.75781	764.31689	467.18839	-865.32770	804.57959	275.70163	-908.72339	807.45135	65.62526	-945.32770	845.53253	30.76786	-931.46686	653.09485	30.26709	-1146.83118	782.15216	635.18732	-1127.03748	746.53754	458.67386	-1125.07056	888.95306	331.83658	-1079.68018	1047.75391	188.22343	-1021.91522	1096.94690	193.81172	-1076.49792	984.06427	60.83184	-949.62701	815.26257	1676.19507															 
43	0.420	-904.55927	718.64575	1622.24268	-1037.18396	724.36450	1631.41956	-906.45233	841.82562	1564.51331	-1037.28711	841.88513	1573.60522	-970.83490	864.08899	1418.18604	-977.34393	904.46185	1106.13721	-973.17670	742.45355	1339.73425	-971.51294	702.09454	1174.00684	-1073.43774	919.29858	1247.43188	-816.17883	784.21124	1372.20752	-743.94122	790.71832	1174.52124	-731.01978	782.93646	1051.77979	-730.90485	755.84619	924.28247	-760.26892	738.34644	806.31378	-707.34448	757.42438	812.11237	-717.02069	743.28540	728.39325	-1132.13989	781.62335	1364.04260	-1199.78687	765.14923	1139.96375	-1207.58264	741.05890	1028.71021	-1205.22766	717.04553	893.71667	-1164.84302	688.15820	799.49097	-1213.09204	711.29346	795.19263	-1205.65137	680.80719	729.04395	-861.70734	731.88397	945.78217	-1099.76074	737.60394	935.80609	-908.74872	896.47083	967.55365	-1058.36719	898.38684	964.70282	-823.22125	776.55084	644.35211	-864.78674	760.03412	466.88449	-865.17743	801.85425	275.66406	-908.78668	807.16101	65.72588	-945.34204	845.51074	30.85951	-931.50018	652.98779	30.22914	-1145.66565	771.23865	635.71527	-1126.40662	732.24731	459.96503	-1124.60193	873.15649	331.82336	-1079.57825	1030.54346	186.57027	-1022.02014	1080.30005	190.81009	-1077.14746	963.77014	61.25314	-949.46204	808.82593	1676.36389															 
44	0.430	-904.42065	712.15692	1622.08960	-1037.08203	717.84369	1631.46069	-906.43384	835.23419	1564.40564	-1037.23657	835.43842	1573.73560	-970.49628	858.03601	1418.23132	-976.68793	898.10602	1106.12012	-973.28516	736.39075	1339.77368	-971.54730	695.99127	1174.10388	-1072.79150	913.50055	1247.41980	-816.19604	777.68207	1372.42993	-743.21710	781.96442	1175.09155	-729.75482	772.43243	1052.67017	-729.24414	743.98822	925.46631	-758.13715	725.64771	807.55499	-705.00464	744.05194	813.53058	-713.90173	727.97723	730.34027	-1132.16382	776.20093	1364.19397	-1199.92480	760.58649	1140.03528	-1207.90979	736.84723	1028.75427	-1206.33789	714.07190	893.53815	-1166.61353	685.98566	798.69971	-1214.85461	709.27118	795.02765	-1208.07080	679.52509	728.47198	-860.99933	725.14478	945.88794	-1099.21191	731.58734	936.47156	-907.81073	889.72754	967.34424	-1057.43994	891.97192	964.82233	-823.00183	770.61511	644.20959	-864.59698	755.60651	466.65005	-864.95508	799.11487	275.69772	-908.82770	806.82037	65.84081	-945.42023	845.48358	30.95973	-931.51276	652.86957	30.19888	-1145.18933	760.83374	636.52295	-1125.67029	718.23297	461.44189	-1124.02417	857.20966	331.45480	-1079.65979	1012.65887	183.83359	-1022.43640	1063.14575	186.85857	-1076.95654	942.59882	60.91731	-949.14026	802.23163	1676.22461															 
45	0.440	-904.40533	705.66608	1621.94971	-1037.02441	711.32605	1631.44812	-906.45776	828.80621	1564.47205	-1037.26794	829.00940	1573.93909	-970.21014	851.92194	1418.14343	-975.94385	891.82611	1106.08154	-973.39807	730.35529	1339.80322	-971.51727	689.92004	1174.20337	-1072.22095	907.74805	1247.41016	-816.32166	771.19006	1372.79810	-742.60162	773.32581	1175.96692	-728.70862	762.07135	1053.76001	-727.70386	732.06342	926.99127	-756.04773	712.67029	809.14209	-702.74207	730.58020	815.20673	-710.94495	712.73126	732.56030	-1132.15723	770.88263	1364.46033	-1200.11487	756.09479	1140.29846	-1208.39136	732.76764	1028.95764	-1207.55237	711.05151	893.56952	-1168.51990	683.55585	798.25787	-1216.70691	707.16187	795.07916	-1210.51746	678.12927	728.10004	-860.27478	718.44043	946.00555	-1098.59558	725.25092	937.15729	-906.93213	883.04816	967.14227	-1056.65918	885.55231	964.94281	-822.80591	764.69928	644.02106	-864.18542	751.11548	466.53897	-864.77356	796.36951	275.69635	-908.95990	806.47784	65.99948	-945.44550	845.48157	31.13041	-931.53778	652.76166	30.16330	-1143.98645	750.26526	637.61731	-1124.71875	704.49445	462.97726	-1123.69824	841.06781	330.62897	-1079.76245	994.33813	180.54768	-1022.94336	1045.55627	182.01891	-1076.49329	920.15234	59.97998	-948.95892	795.59692	1676.25916															 
46	0.450	-904.37506	699.11707	1621.86548	-1037.04871	704.73718	1631.45166	-906.53131	822.43787	1564.65552	-1037.32019	822.59039	1574.16248	-969.94592	846.06775	1418.21497	-975.22742	885.53180	1106.01550	-973.50659	724.31946	1339.89502	-971.59839	683.89063	1174.30640	-1071.67078	901.96222	1247.40222	-816.49683	764.73169	1373.19873	-742.06512	764.74084	1176.89929	-727.67139	751.78589	1055.03394	-726.24744	720.24213	928.63672	-754.04437	699.60132	810.89050	-700.67285	717.14844	817.11145	-708.14984	697.46057	734.98608	-1132.17371	765.62286	1364.72302	-1200.40247	751.65302	1140.63123	-1209.01733	728.83392	1029.29407	-1208.90112	708.01471	893.76605	-1170.60925	680.88037	797.96320	-1218.61719	704.93445	795.24951	-1212.96033	676.60242	727.81586	-859.57306	711.84735	945.97943	-1097.97131	718.75879	937.70776	-906.20239	876.41290	966.93347	-1055.86780	879.11267	965.05414	-822.64484	759.03009	643.83850	-864.31012	746.92950	466.13589	-864.63702	793.65405	275.67285	-908.85809	806.24512	66.23325	-945.92670	844.98022	30.92811	-931.60687	652.65503	30.12145	-1142.74329	739.06860	638.15082	-1123.68140	691.01117	464.60049	-1123.30444	824.85480	329.49933	-1079.83337	975.28912	176.29231	-1023.62366	1027.20923	176.18384	-1075.65137	896.90424	58.60220	-949.03125	788.99353	1676.40015															 
47	0.460	-904.51440	692.64612	1621.71179	-1037.10095	698.20721	1631.35034	-906.65802	816.02979	1564.83289	-1037.45154	816.17853	1574.40723	-969.76239	840.12787	1418.17737	-974.49603	879.32025	1105.99036	-973.71552	718.35101	1339.94678	-971.65320	677.87744	1174.39197	-1071.13110	896.18170	1247.33118	-816.71082	758.24573	1373.63477	-741.57892	756.25079	1177.90234	-726.68225	741.70514	1056.29907	-724.82159	708.41541	930.42682	-752.03558	686.70221	812.82294	-698.72858	703.58923	819.13226	-705.58563	682.22650	737.54987	-1132.22327	760.37103	1364.99292	-1200.80811	747.27051	1140.97131	-1209.83643	724.97693	1029.62476	-1210.37817	704.94305	893.98499	-1172.73083	677.98547	797.81024	-1220.50476	702.56091	795.45496	-1215.39319	674.96570	727.61664	-859.03571	705.64893	945.71967	-1097.29126	712.36877	938.19751	-905.50458	869.87073	966.69690	-1055.14966	872.72717	965.08661	-822.45441	753.11725	643.47534	-864.14117	742.62555	465.79547	-864.52911	790.96893	275.65082	-908.89996	806.01276	66.39850	-946.15930	844.80188	30.95968	-931.72162	652.48840	30.06292	-1142.36694	729.09406	639.30664	-1122.54626	677.85876	466.26074	-1122.84912	808.53107	328.04483	-1079.94836	955.61206	171.29166	-1024.23254	1008.18140	169.51001	-1074.66809	872.90027	56.75854	-949.09698	782.30457	1676.59082															 
